<svg width="25" height="25" viewBox="0 0 25 25" fill="none" xmlns="http://www.w3.org/2000/svg">
<g clip-path="url(#clip0_346_63)">
<path d="M3.5 4.5H4.10632C5.12694 4.5 5.98384 5.2685 6.09452 6.28311L6.90548 13.7169C7.01616 14.7315 7.87306 15.5 8.89368 15.5H17.546C18.4602 15.5 19.2581 14.8801 19.484 13.9942L20.8639 8.58311C21.1864 7.31854 20.231 6.08889 18.926 6.08889H7.1M7.12476 19.1249H7.87476M7.12476 19.8749H7.87476M18.1248 19.1249H18.8748M18.1248 19.8749H18.8748M8.5 19.5C8.5 20.0523 8.05229 20.5 7.5 20.5C6.94772 20.5 6.5 20.0523 6.5 19.5C6.5 18.9477 6.94772 18.5 7.5 18.5C8.05229 18.5 8.5 18.9477 8.5 19.5ZM19.5 19.5C19.5 20.0523 19.0523 20.5 18.5 20.5C17.9477 20.5 17.5 20.0523 17.5 19.5C17.5 18.9477 17.9477 18.5 18.5 18.5C19.0523 18.5 19.5 18.9477 19.5 19.5Z" stroke="white" stroke-width="2" stroke-linecap="round"/>
<circle cx="20.5" cy="5.5" r="4" fill="#FF4747"/>
<path d="M20.4389 7.55966C20.1463 7.55966 19.8849 7.50923 19.6548 7.40838C19.4261 7.30753 19.245 7.16761 19.1115 6.98864C18.9794 6.80824 18.9084 6.59943 18.8984 6.36222H19.5675C19.576 6.49148 19.6193 6.60369 19.6974 6.69886C19.777 6.79261 19.8807 6.86506 20.0085 6.91619C20.1364 6.96733 20.2784 6.9929 20.4347 6.9929C20.6065 6.9929 20.7585 6.96307 20.8906 6.90341C21.0241 6.84375 21.1286 6.76065 21.2038 6.65412C21.2791 6.54616 21.3168 6.42188 21.3168 6.28125C21.3168 6.13494 21.2791 6.00639 21.2038 5.8956C21.13 5.78338 21.0213 5.69531 20.8778 5.63139C20.7358 5.56747 20.5639 5.53551 20.3622 5.53551H19.9936V4.99858H20.3622C20.5241 4.99858 20.6662 4.96946 20.7884 4.91122C20.9119 4.85298 21.0085 4.77202 21.0781 4.66832C21.1477 4.56321 21.1825 4.44034 21.1825 4.29972C21.1825 4.16477 21.152 4.04759 21.0909 3.94815C21.0313 3.8473 20.946 3.76847 20.8352 3.71165C20.7259 3.65483 20.5966 3.62642 20.4474 3.62642C20.3054 3.62642 20.1726 3.6527 20.049 3.70526C19.9268 3.75639 19.8274 3.83026 19.7507 3.92685C19.674 4.02202 19.6328 4.13636 19.6271 4.26989H18.9901C18.9972 4.03409 19.0668 3.8267 19.1989 3.64773C19.3324 3.46875 19.5085 3.32884 19.7273 3.22798C19.946 3.12713 20.1889 3.0767 20.456 3.0767C20.7358 3.0767 20.9773 3.13139 21.1804 3.24077C21.3849 3.34872 21.5426 3.4929 21.6534 3.6733C21.7656 3.85369 21.821 4.05114 21.8196 4.26562C21.821 4.50994 21.7528 4.71733 21.6151 4.88778C21.4787 5.05824 21.2969 5.17259 21.0696 5.23082V5.26491C21.3594 5.30895 21.5838 5.42401 21.7429 5.61009C21.9034 5.79616 21.983 6.02699 21.9815 6.30256C21.983 6.54261 21.9162 6.75781 21.7812 6.94815C21.6477 7.13849 21.4652 7.28835 21.2337 7.39773C21.0021 7.50568 20.7372 7.55966 20.4389 7.55966Z" fill="white"/>
</g>
<defs>
<clipPath id="clip0_346_63">
<rect width="24" height="24" fill="white" transform="translate(0.5 0.5)"/>
</clipPath>
</defs>
</svg>
