<svg width="187" height="32" viewBox="0 0 187 32" fill="none" xmlns="http://www.w3.org/2000/svg">
<path d="M0.554688 21.4512L2.7959 20.543V6.45117L0.554688 5.54297V2.99414L9.85645 2.84766V5.54297L7.4541 6.45117V11.2559H15.3057V6.45117L12.9033 5.54297V2.99414L22.2051 2.84766V5.54297L19.9639 6.45117V20.543L22.2051 21.4512V24H12.9033V21.4512L15.3057 20.543V14.8447H7.4541V20.543L9.85645 21.4512V24H0.554688V21.4512ZM30.315 7.50586C32.7271 7.50586 34.5875 8.20898 35.8961 9.61523C37.2145 11.0215 37.8736 13.0186 37.8736 15.6064C37.8736 17.3838 37.5416 18.9268 36.8775 20.2354C36.2232 21.5439 35.2955 22.5498 34.0943 23.2529C32.8932 23.9463 31.482 24.293 29.8609 24.293C24.7633 24.293 22.2145 21.5439 22.2145 16.0459C22.2145 14.2686 22.5465 12.7402 23.2105 11.4609C23.8844 10.1816 24.8316 9.20508 26.0523 8.53125C27.273 7.84766 28.6939 7.50586 30.315 7.50586ZM30.1539 11.0947C29.0211 11.0947 28.1861 11.4609 27.649 12.1934C27.1217 12.9258 26.858 14.1611 26.858 15.8994C26.858 17.5596 27.107 18.7754 27.6051 19.5469C28.1129 20.3184 28.9137 20.7041 30.0074 20.7041C31.1109 20.7041 31.9215 20.3184 32.4391 19.5469C32.9566 18.7754 33.2154 17.5107 33.2154 15.7529C33.2154 14.1904 32.9713 13.0234 32.483 12.252C31.9947 11.4805 31.2184 11.0947 30.1539 11.0947ZM37.2678 7.94531L44.1672 7.79883V18.1553C44.1672 18.9951 44.3039 19.6055 44.5773 19.9863C44.8605 20.3574 45.3342 20.543 45.9982 20.543C46.5744 20.543 47.1115 20.4258 47.6096 20.1914C48.1076 19.9473 48.5275 19.6885 48.8693 19.415C49.2111 19.1318 49.382 18.9707 49.382 18.9316V11.0947L46.9797 10.3477V7.94531L53.8791 7.79883V20.8506L56.2814 21.4512V23.7949L49.9533 24L49.6604 21.9053C49.6604 21.9443 49.382 22.1738 48.8254 22.5938C48.2785 23.0137 47.6145 23.4043 46.8332 23.7656C46.052 24.1172 45.2414 24.293 44.4016 24.293C42.8977 24.293 41.7307 23.8193 40.9006 22.8721C40.0803 21.9248 39.6701 20.6113 39.6701 18.9316V11.0947L37.2678 10.3477V7.94531ZM58.8689 20.7041C58.8689 20.7236 59.1326 20.7773 59.66 20.8652C60.1873 20.9531 60.7635 20.9971 61.3885 20.9971C63.0291 20.9971 63.8445 20.5088 63.8348 19.5322C63.8348 19.0928 63.6053 18.7363 63.1463 18.4629C62.6873 18.1895 61.9598 17.8867 60.9637 17.5547C59.8992 17.1934 59.0252 16.8418 58.3416 16.5C57.6678 16.1582 57.0818 15.6748 56.5838 15.0498C56.0857 14.415 55.8367 13.6094 55.8367 12.6328C55.8367 10.875 56.4227 9.58105 57.5945 8.75098C58.7762 7.9209 60.2508 7.50586 62.0184 7.50586C62.8191 7.50586 63.6297 7.56934 64.45 7.69629C65.2801 7.82324 65.9734 7.96484 66.5301 8.12109C67.0965 8.26758 67.448 8.36035 67.5848 8.39941L67.4676 12.8965H64.9188L64.4793 11.0947C64.4793 11.0752 64.2547 11.0215 63.8055 10.9336C63.366 10.8457 62.8973 10.8018 62.3992 10.8018C61.7352 10.8018 61.2225 10.9336 60.8611 11.1973C60.5096 11.4512 60.3338 11.8271 60.3338 12.3252C60.3338 12.7646 60.5633 13.1162 61.0223 13.3799C61.4813 13.6436 62.2088 13.9219 63.2049 14.2148C64.2693 14.5566 65.1434 14.8838 65.827 15.1963C66.5203 15.5088 67.1111 15.9678 67.5994 16.5732C68.0975 17.1689 68.3465 17.9453 68.3465 18.9023C68.3465 20.6016 67.7215 21.9248 66.4715 22.8721C65.2215 23.8193 63.5467 24.293 61.4471 24.293C60.6072 24.293 59.7771 24.2441 58.9568 24.1465C58.1365 24.0488 57.4578 23.9512 56.9207 23.8535C56.3934 23.7559 56.0613 23.6826 55.9246 23.6338V18.7559H58.6199L58.8689 20.7041ZM73.0287 16.8955C73.1068 18.0967 73.4682 19.0342 74.1127 19.708C74.767 20.3721 75.6166 20.7041 76.6615 20.7041C77.4037 20.7041 78.1459 20.6016 78.8881 20.3965C79.64 20.1816 80.2602 19.9668 80.7484 19.752C81.2465 19.5273 81.5639 19.3711 81.7006 19.2832L82.9896 21.7734C82.9896 21.8125 82.6381 22.0615 81.935 22.5205C81.2416 22.9697 80.3871 23.3799 79.3715 23.751C78.3656 24.1123 77.2914 24.293 76.1488 24.293C73.6098 24.293 71.6762 23.5898 70.348 22.1836C69.0199 20.7773 68.3559 18.7852 68.3559 16.207C68.3559 14.4688 68.6732 12.9453 69.308 11.6367C69.9525 10.3184 70.8754 9.30273 72.0766 8.58984C73.2777 7.86719 74.7035 7.50586 76.3539 7.50586C78.5512 7.50586 80.2357 8.13574 81.4076 9.39551C82.5795 10.6553 83.1654 12.374 83.1654 14.5518C83.1654 15.0303 83.141 15.4941 83.0922 15.9434C83.0434 16.3926 83.0092 16.6758 82.9896 16.793L73.0287 16.8955ZM76.0609 11.0947C75.2406 11.0947 74.5717 11.373 74.0541 11.9297C73.5365 12.4766 73.2143 13.1992 73.0873 14.0977H78.5219C78.5219 13.1992 78.3217 12.4766 77.9213 11.9297C77.5209 11.373 76.9008 11.0947 76.0609 11.0947ZM91.583 7.50586C93.9951 7.50586 95.8555 8.20898 97.1641 9.61523C98.4824 11.0215 99.1416 13.0186 99.1416 15.6064C99.1416 17.3838 98.8096 18.9268 98.1455 20.2354C97.4912 21.5439 96.5635 22.5498 95.3623 23.2529C94.1611 23.9463 92.75 24.293 91.1289 24.293C86.0312 24.293 83.4824 21.5439 83.4824 16.0459C83.4824 14.2686 83.8145 12.7402 84.4785 11.4609C85.1523 10.1816 86.0996 9.20508 87.3203 8.53125C88.541 7.84766 89.9619 7.50586 91.583 7.50586ZM91.4219 11.0947C90.2891 11.0947 89.4541 11.4609 88.917 12.1934C88.3896 12.9258 88.126 14.1611 88.126 15.8994C88.126 17.5596 88.375 18.7754 88.873 19.5469C89.3809 20.3184 90.1816 20.7041 91.2754 20.7041C92.3789 20.7041 93.1895 20.3184 93.707 19.5469C94.2246 18.7754 94.4834 17.5107 94.4834 15.7529C94.4834 14.1904 94.2393 13.0234 93.751 12.252C93.2627 11.4805 92.4863 11.0947 91.4219 11.0947ZM101.978 6.74414C101.978 4.79102 102.535 3.24316 103.648 2.10059C104.761 0.958008 106.358 0.386719 108.438 0.386719C109.395 0.386719 110.269 0.469727 111.06 0.635742C111.851 0.791992 112.496 0.972656 112.994 1.17773C113.492 1.37305 113.741 1.48047 113.741 1.5L113.653 5.90918H110.958L110.504 3.81445C110.425 3.79492 110.225 3.77051 109.903 3.74121C109.581 3.71191 109.21 3.69727 108.79 3.69727C107.247 3.69727 106.475 4.54688 106.475 6.24609V8.10645H110.386L110.298 11.0947H106.475V20.8506L109.478 21.5977V24H99.5758V21.5977L101.978 20.8506V11.0947H99.2828V8.5459L101.978 8.10645V6.74414ZM110.894 21.4512L113.135 20.543V6.45117L110.894 5.54297V2.99414L117.793 2.84766H120.064C122.564 2.84766 124.488 3.36523 125.835 4.40039C127.193 5.42578 127.871 6.94922 127.871 8.9707C127.871 10.3281 127.569 11.4805 126.963 12.4277C126.367 13.3652 125.537 14.1025 124.473 14.6396C124.971 15.2158 125.391 15.8652 125.733 16.5879L127.754 20.7041L129.79 21.4512V24H124.238L121.719 18.4482C121.338 17.5889 121.035 16.9834 120.811 16.6318C120.596 16.2803 120.347 16.0361 120.064 15.8994C119.79 15.7627 119.38 15.6943 118.833 15.6943H117.793V20.543L119.946 21.4512V24H110.894V21.4512ZM119.492 12.5449C120.674 12.5449 121.592 12.2715 122.246 11.7246C122.91 11.168 123.242 10.3916 123.242 9.39551C123.242 8.53613 122.974 7.83301 122.437 7.28613C121.9 6.72949 121.172 6.45117 120.254 6.45117H117.793V12.5449H119.492ZM137.138 7.50586C139.551 7.50586 141.411 8.20898 142.72 9.61523C144.038 11.0215 144.697 13.0186 144.697 15.6064C144.697 17.3838 144.365 18.9268 143.701 20.2354C143.047 21.5439 142.119 22.5498 140.918 23.2529C139.717 23.9463 138.305 24.293 136.684 24.293C131.587 24.293 129.038 21.5439 129.038 16.0459C129.038 14.2686 129.37 12.7402 130.034 11.4609C130.708 10.1816 131.655 9.20508 132.876 8.53125C134.096 7.84766 135.517 7.50586 137.138 7.50586ZM136.977 11.0947C135.845 11.0947 135.01 11.4609 134.472 12.1934C133.945 12.9258 133.681 14.1611 133.681 15.8994C133.681 17.5596 133.93 18.7754 134.429 19.5469C134.936 20.3184 135.737 20.7041 136.831 20.7041C137.934 20.7041 138.745 20.3184 139.262 19.5469C139.78 18.7754 140.039 17.5107 140.039 15.7529C140.039 14.1904 139.795 13.0234 139.306 12.252C138.818 11.4805 138.042 11.0947 136.977 11.0947ZM147.724 20.7041C147.724 20.7236 147.988 20.7773 148.515 20.8652C149.042 20.9531 149.619 20.9971 150.244 20.9971C151.884 20.9971 152.7 20.5088 152.69 19.5322C152.69 19.0928 152.46 18.7363 152.001 18.4629C151.542 18.1895 150.815 17.8867 149.819 17.5547C148.754 17.1934 147.88 16.8418 147.197 16.5C146.523 16.1582 145.937 15.6748 145.439 15.0498C144.941 14.415 144.692 13.6094 144.692 12.6328C144.692 10.875 145.278 9.58105 146.45 8.75098C147.631 7.9209 149.106 7.50586 150.873 7.50586C151.674 7.50586 152.485 7.56934 153.305 7.69629C154.135 7.82324 154.829 7.96484 155.385 8.12109C155.952 8.26758 156.303 8.36035 156.44 8.39941L156.323 12.8965H153.774L153.334 11.0947C153.334 11.0752 153.11 11.0215 152.661 10.9336C152.221 10.8457 151.752 10.8018 151.254 10.8018C150.59 10.8018 150.078 10.9336 149.716 11.1973C149.365 11.4512 149.189 11.8271 149.189 12.3252C149.189 12.7646 149.418 13.1162 149.877 13.3799C150.336 13.6436 151.064 13.9219 152.06 14.2148C153.124 14.5566 153.998 14.8838 154.682 15.1963C155.375 15.5088 155.966 15.9678 156.454 16.5732C156.953 17.1689 157.202 17.9453 157.202 18.9023C157.202 20.6016 156.577 21.9248 155.327 22.8721C154.077 23.8193 152.402 24.293 150.302 24.293C149.462 24.293 148.632 24.2441 147.812 24.1465C146.992 24.0488 146.313 23.9512 145.776 23.8535C145.248 23.7559 144.916 23.6826 144.78 23.6338V18.7559H147.475L147.724 20.7041ZM160.243 20.7041C160.243 20.7236 160.507 20.7773 161.034 20.8652C161.562 20.9531 162.138 20.9971 162.763 20.9971C164.403 20.9971 165.219 20.5088 165.209 19.5322C165.209 19.0928 164.979 18.7363 164.521 18.4629C164.062 18.1895 163.334 17.8867 162.338 17.5547C161.273 17.1934 160.399 16.8418 159.716 16.5C159.042 16.1582 158.456 15.6748 157.958 15.0498C157.46 14.415 157.211 13.6094 157.211 12.6328C157.211 10.875 157.797 9.58105 158.969 8.75098C160.15 7.9209 161.625 7.50586 163.393 7.50586C164.193 7.50586 165.004 7.56934 165.824 7.69629C166.654 7.82324 167.348 7.96484 167.904 8.12109C168.471 8.26758 168.822 8.36035 168.959 8.39941L168.842 12.8965H166.293L165.854 11.0947C165.854 11.0752 165.629 11.0215 165.18 10.9336C164.74 10.8457 164.271 10.8018 163.773 10.8018C163.109 10.8018 162.597 10.9336 162.235 11.1973C161.884 11.4512 161.708 11.8271 161.708 12.3252C161.708 12.7646 161.938 13.1162 162.396 13.3799C162.855 13.6436 163.583 13.9219 164.579 14.2148C165.644 14.5566 166.518 14.8838 167.201 15.1963C167.895 15.5088 168.485 15.9678 168.974 16.5732C169.472 17.1689 169.721 17.9453 169.721 18.9023C169.721 20.6016 169.096 21.9248 167.846 22.8721C166.596 23.8193 164.921 24.293 162.821 24.293C161.981 24.293 161.151 24.2441 160.331 24.1465C159.511 24.0488 158.832 23.9512 158.295 23.8535C157.768 23.7559 157.436 23.6826 157.299 23.6338V18.7559H159.994L160.243 20.7041ZM168.822 7.94531L176.835 7.79883V10.3477L175.15 10.6553L177.831 19.0488L180.379 10.7432L178.636 10.3477V7.94531L186.708 7.79883V10.3477L184.847 10.7432L180.438 23.0332C179.862 24.6543 179.247 26.041 178.592 27.1934C177.938 28.3457 177.088 29.3027 176.044 30.0645C175.008 30.8262 173.754 31.207 172.279 31.207C171.859 31.207 171.317 31.168 170.653 31.0898C169.999 31.0215 169.569 30.9775 169.364 30.958L169.789 27.75H171.737C172.772 27.75 173.587 27.3838 174.183 26.6514C174.789 25.9189 175.311 25.0449 175.751 24.0293L170.419 10.8311L168.822 10.3477V7.94531Z" fill="#CD00C5"/>
</svg>
