<svg width="256" height="76" viewBox="0 0 256 76" fill="none" xmlns="http://www.w3.org/2000/svg">
<path d="M34.8706 36.3262L37.1118 35.418V21.3262L34.8706 20.418V17.8691L44.1724 17.7227V20.418L41.77 21.3262V26.1309H49.6216V21.3262L47.2192 20.418V17.8691L56.521 17.7227V20.418L54.2798 21.3262V35.418L56.521 36.3262V38.875H47.2192V36.3262L49.6216 35.418V29.7197H41.77V35.418L44.1724 36.3262V38.875H34.8706V36.3262ZM64.631 22.3809C67.0431 22.3809 68.9034 23.084 70.212 24.4902C71.5304 25.8965 72.1896 27.8936 72.1896 30.4814C72.1896 32.2588 71.8575 33.8018 71.1935 35.1104C70.5392 36.4189 69.6114 37.4248 68.4103 38.1279C67.2091 38.8213 65.798 39.168 64.1769 39.168C59.0792 39.168 56.5304 36.4189 56.5304 30.9209C56.5304 29.1436 56.8624 27.6152 57.5265 26.3359C58.2003 25.0566 59.1476 24.0801 60.3683 23.4062C61.589 22.7227 63.0099 22.3809 64.631 22.3809ZM64.4698 25.9697C63.337 25.9697 62.5021 26.3359 61.9649 27.0684C61.4376 27.8008 61.1739 29.0361 61.1739 30.7744C61.1739 32.4346 61.423 33.6504 61.921 34.4219C62.4288 35.1934 63.2296 35.5791 64.3233 35.5791C65.4269 35.5791 66.2374 35.1934 66.755 34.4219C67.2726 33.6504 67.5313 32.3857 67.5313 30.6279C67.5313 29.0654 67.2872 27.8984 66.7989 27.127C66.3106 26.3555 65.5343 25.9697 64.4698 25.9697ZM71.5837 22.8203L78.4831 22.6738V33.0303C78.4831 33.8701 78.6198 34.4805 78.8933 34.8613C79.1765 35.2324 79.6501 35.418 80.3142 35.418C80.8903 35.418 81.4274 35.3008 81.9255 35.0664C82.4235 34.8223 82.8435 34.5635 83.1853 34.29C83.5271 34.0068 83.698 33.8457 83.698 33.8066V25.9697L81.2956 25.2227V22.8203L88.195 22.6738V35.7256L90.5974 36.3262V38.6699L84.2692 38.875L83.9763 36.7803C83.9763 36.8193 83.698 37.0488 83.1413 37.4688C82.5944 37.8887 81.9304 38.2793 81.1491 38.6406C80.3679 38.9922 79.5573 39.168 78.7175 39.168C77.2136 39.168 76.0466 38.6943 75.2165 37.7471C74.3962 36.7998 73.986 35.4863 73.986 33.8066V25.9697L71.5837 25.2227V22.8203ZM93.1849 35.5791C93.1849 35.5986 93.4485 35.6523 93.9759 35.7402C94.5032 35.8281 95.0794 35.8721 95.7044 35.8721C97.345 35.8721 98.1604 35.3838 98.1507 34.4072C98.1507 33.9678 97.9212 33.6113 97.4622 33.3379C97.0032 33.0645 96.2757 32.7617 95.2796 32.4297C94.2151 32.0684 93.3411 31.7168 92.6575 31.375C91.9837 31.0332 91.3978 30.5498 90.8997 29.9248C90.4017 29.29 90.1526 28.4844 90.1526 27.5078C90.1526 25.75 90.7386 24.4561 91.9104 23.626C93.0921 22.7959 94.5667 22.3809 96.3343 22.3809C97.1351 22.3809 97.9456 22.4443 98.7659 22.5713C99.596 22.6982 100.289 22.8398 100.846 22.9961C101.412 23.1426 101.764 23.2354 101.901 23.2744L101.783 27.7715H99.2347L98.7952 25.9697C98.7952 25.9502 98.5706 25.8965 98.1214 25.8086C97.6819 25.7207 97.2132 25.6768 96.7151 25.6768C96.0511 25.6768 95.5384 25.8086 95.177 26.0723C94.8255 26.3262 94.6497 26.7021 94.6497 27.2002C94.6497 27.6396 94.8792 27.9912 95.3382 28.2549C95.7972 28.5186 96.5247 28.7969 97.5208 29.0898C98.5853 29.4316 99.4593 29.7588 100.143 30.0713C100.836 30.3838 101.427 30.8428 101.915 31.4482C102.413 32.0439 102.662 32.8203 102.662 33.7773C102.662 35.4766 102.037 36.7998 100.787 37.7471C99.5374 38.6943 97.8626 39.168 95.763 39.168C94.9231 39.168 94.0931 39.1191 93.2728 39.0215C92.4524 38.9238 91.7737 38.8262 91.2366 38.7285C90.7093 38.6309 90.3772 38.5576 90.2405 38.5088V33.6309H92.9358L93.1849 35.5791ZM107.345 31.7705C107.423 32.9717 107.784 33.9092 108.429 34.583C109.083 35.2471 109.933 35.5791 110.977 35.5791C111.72 35.5791 112.462 35.4766 113.204 35.2715C113.956 35.0566 114.576 34.8418 115.064 34.627C115.562 34.4023 115.88 34.2461 116.017 34.1582L117.306 36.6484C117.306 36.6875 116.954 36.9365 116.251 37.3955C115.558 37.8447 114.703 38.2549 113.687 38.626C112.682 38.9873 111.607 39.168 110.465 39.168C107.926 39.168 105.992 38.4648 104.664 37.0586C103.336 35.6523 102.672 33.6602 102.672 31.082C102.672 29.3438 102.989 27.8203 103.624 26.5117C104.268 25.1934 105.191 24.1777 106.392 23.4648C107.594 22.7422 109.019 22.3809 110.67 22.3809C112.867 22.3809 114.552 23.0107 115.724 24.2705C116.895 25.5303 117.481 27.249 117.481 29.4268C117.481 29.9053 117.457 30.3691 117.408 30.8184C117.359 31.2676 117.325 31.5508 117.306 31.668L107.345 31.7705ZM110.377 25.9697C109.557 25.9697 108.888 26.248 108.37 26.8047C107.852 27.3516 107.53 28.0742 107.403 28.9727H112.838C112.838 28.0742 112.638 27.3516 112.237 26.8047C111.837 26.248 111.217 25.9697 110.377 25.9697ZM125.899 22.3809C128.311 22.3809 130.171 23.084 131.48 24.4902C132.798 25.8965 133.458 27.8936 133.458 30.4814C133.458 32.2588 133.125 33.8018 132.461 35.1104C131.807 36.4189 130.879 37.4248 129.678 38.1279C128.477 38.8213 127.066 39.168 125.445 39.168C120.347 39.168 117.798 36.4189 117.798 30.9209C117.798 29.1436 118.13 27.6152 118.794 26.3359C119.468 25.0566 120.416 24.0801 121.636 23.4062C122.857 22.7227 124.278 22.3809 125.899 22.3809ZM125.738 25.9697C124.605 25.9697 123.77 26.3359 123.233 27.0684C122.706 27.8008 122.442 29.0361 122.442 30.7744C122.442 32.4346 122.691 33.6504 123.189 34.4219C123.697 35.1934 124.498 35.5791 125.591 35.5791C126.695 35.5791 127.505 35.1934 128.023 34.4219C128.541 33.6504 128.799 32.3857 128.799 30.6279C128.799 29.0654 128.555 27.8984 128.067 27.127C127.579 26.3555 126.802 25.9697 125.738 25.9697ZM136.294 21.6191C136.294 19.666 136.851 18.1182 137.964 16.9756C139.077 15.833 140.674 15.2617 142.754 15.2617C143.711 15.2617 144.585 15.3447 145.376 15.5107C146.167 15.667 146.812 15.8477 147.31 16.0527C147.808 16.248 148.057 16.3555 148.057 16.375L147.969 20.7842H145.274L144.819 18.6895C144.741 18.6699 144.541 18.6455 144.219 18.6162C143.897 18.5869 143.525 18.5723 143.106 18.5723C141.563 18.5723 140.791 19.4219 140.791 21.1211V22.9814H144.702L144.614 25.9697H140.791V35.7256L143.794 36.4727V38.875H133.892V36.4727L136.294 35.7256V25.9697H133.599V23.4209L136.294 22.9814V21.6191ZM145.21 36.3262L147.451 35.418V21.3262L145.21 20.418V17.8691L152.109 17.7227H154.38C156.88 17.7227 158.803 18.2402 160.151 19.2754C161.508 20.3008 162.187 21.8242 162.187 23.8457C162.187 25.2031 161.884 26.3555 161.279 27.3027C160.683 28.2402 159.853 28.9775 158.789 29.5146C159.287 30.0908 159.707 30.7402 160.049 31.4629L162.07 35.5791L164.106 36.3262V38.875H158.554L156.035 33.3232C155.654 32.4639 155.351 31.8584 155.127 31.5068C154.912 31.1553 154.663 30.9111 154.38 30.7744C154.106 30.6377 153.696 30.5693 153.149 30.5693H152.109V35.418L154.262 36.3262V38.875H145.21V36.3262ZM153.808 27.4199C154.99 27.4199 155.908 27.1465 156.562 26.5996C157.226 26.043 157.558 25.2666 157.558 24.2705C157.558 23.4111 157.29 22.708 156.753 22.1611C156.216 21.6045 155.488 21.3262 154.57 21.3262H152.109V27.4199H153.808ZM171.454 22.3809C173.867 22.3809 175.727 23.084 177.035 24.4902C178.354 25.8965 179.013 27.8936 179.013 30.4814C179.013 32.2588 178.681 33.8018 178.017 35.1104C177.363 36.4189 176.435 37.4248 175.234 38.1279C174.033 38.8213 172.621 39.168 171 39.168C165.903 39.168 163.354 36.4189 163.354 30.9209C163.354 29.1436 163.686 27.6152 164.35 26.3359C165.024 25.0566 165.971 24.0801 167.192 23.4062C168.412 22.7227 169.833 22.3809 171.454 22.3809ZM171.293 25.9697C170.16 25.9697 169.325 26.3359 168.788 27.0684C168.261 27.8008 167.997 29.0361 167.997 30.7744C167.997 32.4346 168.246 33.6504 168.744 34.4219C169.252 35.1934 170.053 35.5791 171.147 35.5791C172.25 35.5791 173.061 35.1934 173.578 34.4219C174.096 33.6504 174.355 32.3857 174.355 30.6279C174.355 29.0654 174.111 27.8984 173.622 27.127C173.134 26.3555 172.358 25.9697 171.293 25.9697ZM182.04 35.5791C182.04 35.5986 182.304 35.6523 182.831 35.7402C183.358 35.8281 183.934 35.8721 184.559 35.8721C186.2 35.8721 187.016 35.3838 187.006 34.4072C187.006 33.9678 186.776 33.6113 186.317 33.3379C185.858 33.0645 185.131 32.7617 184.135 32.4297C183.07 32.0684 182.196 31.7168 181.513 31.375C180.839 31.0332 180.253 30.5498 179.755 29.9248C179.257 29.29 179.008 28.4844 179.008 27.5078C179.008 25.75 179.594 24.4561 180.766 23.626C181.947 22.7959 183.422 22.3809 185.189 22.3809C185.99 22.3809 186.801 22.4443 187.621 22.5713C188.451 22.6982 189.144 22.8398 189.701 22.9961C190.267 23.1426 190.619 23.2354 190.756 23.2744L190.639 27.7715H188.09L187.65 25.9697C187.65 25.9502 187.426 25.8965 186.976 25.8086C186.537 25.7207 186.068 25.6768 185.57 25.6768C184.906 25.6768 184.393 25.8086 184.032 26.0723C183.681 26.3262 183.505 26.7021 183.505 27.2002C183.505 27.6396 183.734 27.9912 184.193 28.2549C184.652 28.5186 185.38 28.7969 186.376 29.0898C187.44 29.4316 188.314 29.7588 188.998 30.0713C189.691 30.3838 190.282 30.8428 190.77 31.4482C191.268 32.0439 191.517 32.8203 191.517 33.7773C191.517 35.4766 190.892 36.7998 189.642 37.7471C188.392 38.6943 186.718 39.168 184.618 39.168C183.778 39.168 182.948 39.1191 182.128 39.0215C181.308 38.9238 180.629 38.8262 180.092 38.7285C179.564 38.6309 179.232 38.5576 179.096 38.5088V33.6309H181.791L182.04 35.5791ZM194.559 35.5791C194.559 35.5986 194.823 35.6523 195.35 35.7402C195.877 35.8281 196.454 35.8721 197.079 35.8721C198.719 35.8721 199.535 35.3838 199.525 34.4072C199.525 33.9678 199.295 33.6113 198.836 33.3379C198.377 33.0645 197.65 32.7617 196.654 32.4297C195.589 32.0684 194.715 31.7168 194.032 31.375C193.358 31.0332 192.772 30.5498 192.274 29.9248C191.776 29.29 191.527 28.4844 191.527 27.5078C191.527 25.75 192.113 24.4561 193.285 23.626C194.466 22.7959 195.941 22.3809 197.708 22.3809C198.509 22.3809 199.32 22.4443 200.14 22.5713C200.97 22.6982 201.664 22.8398 202.22 22.9961C202.787 23.1426 203.138 23.2354 203.275 23.2744L203.158 27.7715H200.609L200.169 25.9697C200.169 25.9502 199.945 25.8965 199.496 25.8086C199.056 25.7207 198.587 25.6768 198.089 25.6768C197.425 25.6768 196.913 25.8086 196.551 26.0723C196.2 26.3262 196.024 26.7021 196.024 27.2002C196.024 27.6396 196.253 27.9912 196.712 28.2549C197.171 28.5186 197.899 28.7969 198.895 29.0898C199.959 29.4316 200.833 29.7588 201.517 30.0713C202.21 30.3838 202.801 30.8428 203.29 31.4482C203.788 32.0439 204.037 32.8203 204.037 33.7773C204.037 35.4766 203.412 36.7998 202.162 37.7471C200.912 38.6943 199.237 39.168 197.137 39.168C196.297 39.168 195.467 39.1191 194.647 39.0215C193.827 38.9238 193.148 38.8262 192.611 38.7285C192.083 38.6309 191.751 38.5576 191.615 38.5088V33.6309H194.31L194.559 35.5791ZM203.138 22.8203L211.15 22.6738V25.2227L209.466 25.5303L212.147 33.9238L214.695 25.6182L212.952 25.2227V22.8203L221.024 22.6738V25.2227L219.163 25.6182L214.754 37.9082C214.178 39.5293 213.563 40.916 212.908 42.0684C212.254 43.2207 211.404 44.1777 210.359 44.9395C209.324 45.7012 208.069 46.082 206.595 46.082C206.175 46.082 205.633 46.043 204.969 45.9648C204.315 45.8965 203.885 45.8525 203.68 45.833L204.105 42.625H206.053C207.088 42.625 207.903 42.2588 208.499 41.5264C209.105 40.7939 209.627 39.9199 210.066 38.9043L204.734 25.7061L203.138 25.2227V22.8203Z" fill="white"/>
</svg>
