<svg width="80" height="80" viewBox="0 0 80 80" fill="none" xmlns="http://www.w3.org/2000/svg">
<g id="Frame 427319324">
<circle id="Ellipse 42" cx="40" cy="40" r="40" fill="white"/>
<path id="Vector" d="M29.9083 23.5452C29.2029 23.1817 28.406 22.9938 27.5969 23.0002C26.7877 23.0065 25.9944 23.2068 25.2959 23.5813C24.5974 23.9557 24.018 24.4912 23.6152 25.1346C23.2124 25.7779 23.0003 26.5067 23 27.2484V52.7488C22.9998 53.4908 23.2115 54.2199 23.614 54.8636C24.0166 55.5073 24.596 56.0432 25.2946 56.418C25.9932 56.7928 26.7867 56.9934 27.5961 56.9998C28.4055 57.0063 29.2027 56.8184 29.9083 56.4548L54.6359 43.7046C55.3531 43.335 55.9501 42.797 56.3656 42.146C56.781 41.4949 57 40.7543 57 40C57 39.2457 56.781 38.5051 56.3656 37.854C55.9501 37.203 55.3531 36.665 54.6359 36.2954L29.9083 23.5452Z" fill="#0B0A0A"/>
</g>
</svg>
