<svg width="25" height="25" viewBox="0 0 25 25" fill="none" xmlns="http://www.w3.org/2000/svg">
<g clip-path="url(#clip0_346_61)">
<path d="M20.1077 19.6937C19.7111 18.9166 19.1877 18.1875 18.5374 17.5373C15.2031 14.2029 9.79705 14.2029 6.46272 17.5373C5.81247 18.1875 5.28903 18.9166 4.8924 19.6937M1.5 12.5C1.5 6.42487 6.42487 1.5 12.5 1.5C18.5751 1.5 23.5 6.42487 23.5 12.5C23.5 18.5751 18.5751 23.5 12.5 23.5C6.42487 23.5 1.5 18.5751 1.5 12.5ZM16.5 10.5C16.5 12.7091 14.7091 14.5 12.5 14.5C10.2909 14.5 8.5 12.7091 8.5 10.5C8.5 8.29086 10.2909 6.5 12.5 6.5C14.7091 6.5 16.5 8.29086 16.5 10.5Z" stroke="white" stroke-width="2"/>
</g>
<defs>
<clipPath id="clip0_346_61">
<rect width="24" height="24" fill="white" transform="translate(0.5 0.5)"/>
</clipPath>
</defs>
</svg>
