<svg width="24" height="24" viewBox="0 0 24 24" fill="none" xmlns="http://www.w3.org/2000/svg">
<g id="formkit:whatsapp">
<path id="Vector" d="M20.9247 6.35997C17.7897 1.49997 11.3697 0.0599657 6.40468 3.07497C1.55968 6.08997 -0.000315666 12.66 3.13468 17.505L3.38968 17.895L2.33968 21.825L6.26968 20.775L6.65968 21.03C8.35468 21.945 10.1997 22.47 12.0297 22.47C13.9947 22.47 15.9597 21.945 17.6547 20.895C22.4997 17.745 23.9397 11.31 20.9247 6.32997V6.35997ZM18.1797 16.47C17.6547 17.25 16.9947 17.775 16.0797 17.91C15.5547 17.91 14.8947 18.165 12.2847 17.13C10.0647 16.08 8.21968 14.37 6.91468 12.405C6.13468 11.49 5.72968 10.305 5.60968 9.11997C5.60968 8.06997 5.99968 7.15497 6.65968 6.49497C6.91468 6.23997 7.18468 6.10497 7.43968 6.10497H8.09968C8.35468 6.10497 8.62468 6.10497 8.75968 6.62997C9.01468 7.28997 9.67468 8.86497 9.67468 8.99997C9.80968 9.13497 9.74968 10.14 9.14968 10.71C8.81968 11.085 8.75968 11.1 8.89468 11.37C9.41968 12.15 10.0797 12.945 10.7247 13.605C11.5047 14.265 12.2997 14.79 13.2147 15.18C13.4697 15.315 13.7397 15.315 13.8747 15.045C14.0097 14.79 14.6547 14.13 14.9247 13.86C15.1797 13.605 15.3147 13.605 15.5847 13.725L17.6847 14.775C17.9397 14.91 18.2097 15.03 18.3447 15.165C18.4797 15.555 18.4797 16.08 18.2097 16.47H18.1797Z" fill="#F8F2FF"/>
</g>
</svg>
